<svg id="Layer_1_1_" enable-background="new 0 0 64 64" height="512" viewBox="0 0 64 64" width="512" xmlns="http://www.w3.org/2000/svg"><path d="m30.967 38h.033c.265 0 .519-.105.707-.293l4.044-4.044 3.496 3.996c.183.208.443.331.72.341h.033c.265 0 .519-.105.707-.293l9.293-9.293v2.586h2v-5c0-.552-.448-1-1-1h-5v2h2.586l-8.537 8.537-2.88-3.292 3.831-3.831v2.586h2v-5c0-.552-.448-1-1-1h-5v2h2.586l-3.737 3.737-2.096-2.396-1.505 1.317 2.184 2.496-3.383 3.383-6.296-7.196-1.505 1.317 7 8c.182.209.442.332.719.342z"/><path d="m2.895 37.553-1.789.895 2 4 2 4c.019.037.04.073.063.107l5.37 8.055c.556.833 1.502 1.336 2.499 1.336.049 0 .098-.001.147-.004l17.346-.867c1.065-.053 2.133-.198 3.172-.429l7.514-1.67c.034-.007.067-.017.1-.027l5.683-1.895 2.684.895c.102.034.209.051.316.051h7c.379 0 .725-.214.895-.553l.927-1.855.885-.885c.188-.187.293-.442.293-.707v-.764l.895-1.789c.069-.138.105-.292.105-.447v-.942l.019-.163c.6-.399.981-1.079.981-1.833 0-1.108-.83-2.048-1.838-2.17l-.773-.17.117-.047c.728-.291 1.257-.923 1.415-1.691s-.079-1.558-.634-2.112c-.627-.627-1.539-.842-2.379-.562l-5.223 1.741c-.112.038-.216.094-.308.168l-4.81 3.848-4.606.921-14.797-1.741c-1.433-.169-2.886-.174-4.319-.014l-5.973.663-1.878-15.021c-.004-.034-.01-.067-.018-.101l-.578-2.505c-1.59-6.891-6.459-12.572-13.025-15.198l-.745 1.858c5.958 2.383 10.376 7.539 11.819 13.791l.567 2.456.308 2.466c-3.143 4.186-8.011 9.453-10.066 11.635zm45.301 5.427c.157-.031.304-.1.428-.2l4.861-3.889 5.054-1.685c.117-.039.245-.008.333.079.108.108.102.231.088.295-.013.064-.056.18-.198.236l-3.134 1.254c-.407.163-.661.573-.625 1.01s.353.8.782.895l4.038.884c.101.014.177.1.177.203 0 .093-.063.173-.153.196-.404.101-.703.442-.75.855l-.089.772c-.006.038-.008.076-.008.115v.764l-.895 1.789c-.069.138-.105.292-.105.447v.586l-.707.707c-.076.076-.139.164-.188.26l-.723 1.447h-6.22l-2.846-.949c-.14-.046-.286-.049-.43-.033v-5.776zm-33.522-11.526 1.334 10.67c.067.542.551.931 1.103.87l6.954-.772c1.283-.143 2.583-.138 3.864.013l14.955 1.759c.103.012.209.009.313-.013l1.69-.338v6.008l-4.153 1.385-7.464 1.659c-.931.207-1.886.336-2.839.384l-17.346.867c-.348.008-.688-.153-.882-.444l-5.335-8.003-1.658-3.315c1.486-1.566 5.998-6.376 9.464-10.73z"/></svg>