<svg id="Layer_1_1_" enable-background="new 0 0 64 64" height="512" viewBox="0 0 64 64" width="512" xmlns="http://www.w3.org/2000/svg"><path d="m48.614 15.051c-.885-.143-1.773-.252-2.66-.344-.235-1.709-2.451-3.707-4.954-3.707-2.5 0-4.714 1.994-4.953 3.701-1.499.157-2.994.38-4.481.679-6.757 1.36-11.857 6.889-12.691 13.759l-.857 7.065c-5.356 2.316-10.235 6.231-13.601 8.955l.001.001c-.585.335-1.124.759-1.51 1.315-.611.88-.714 2-.271 2.925.42.877 1.279 1.443 2.298 1.514 1.732.122 3.552-.99 5.008-1.883.207-.127.403-.248.588-.357 1.577-.933 2.866-1.915 3.915-2.986 1.021.296 2.09.75 3.269 1.365 1.02.533 2.109 1.251 3.262 2.011 2.735 1.803 5.834 3.846 8.995 3.934.028.002.056.003.084.003 2.531 0 6.801-3.112 12.109-7.172 1.796-1.374 3.487-2.665 4.31-3.105.076 0 .153.001.23.001 6.341 0 11.311-.958 14.774-2.847.321-.175.521-.512.521-.878v-8.157c0-7.899-5.629-14.541-13.386-15.792zm-7.614-2.051c1.321 0 2.375.899 2.796 1.53-1.864-.11-3.728-.114-5.589-.005.424-.631 1.475-1.525 2.793-1.525zm-20.14 16.381c.729-6.012 5.19-10.85 11.1-12.039 2.857-.575 5.741-.868 8.63-.894 1.034 1.142 5.305 6.917 4.709 23.69-5.989-2.987-11.739-5.694-18.667-5.856-2.179-.048-4.365.377-6.499 1.099zm-11.347 17.573c-.193.114-.399.241-.615.374-1.148.704-2.729 1.669-3.822 1.593-.309-.021-.522-.151-.634-.383-.133-.278-.091-.63.11-.92.503-.725 1.802-1.179 2.75-1.509l.129-.045c1.503-.526 2.839-.796 4.155-.796.119 0 .238.002.356.006-.705.58-1.511 1.137-2.429 1.68zm31.437-2.714c-3.311 2.533-8.838 6.761-10.882 6.761-.014 0-.027 0-.04 0-2.59-.072-5.315-1.868-7.95-3.604-1.196-.789-2.327-1.534-3.437-2.114-2.609-1.363-4.803-2.023-7.045-2.023-.553 0-1.109.04-1.675.12 4.742-3.534 10.808-7.233 16.663-7.098 6.411.15 11.897 2.697 17.604 5.538-.891.625-1.99 1.465-3.238 2.42zm19.05-5.848c-3.039 1.496-7.311 2.266-12.725 2.32.587-14.408-2.282-21.302-4.151-24.212 1.726.081 3.452.248 5.172.526 6.782 1.093 11.704 6.905 11.704 13.817z"/></svg>