<svg id="Layer_1_1_" enable-background="new 0 0 64 64" height="512" viewBox="0 0 64 64" width="512" xmlns="http://www.w3.org/2000/svg"><path d="m57.354 31.255c-.66-.25-1.283-.486-1.724-.731-2.038-1.134-3.452-3.512-4.82-5.812-.398-.669-.787-1.323-1.18-1.928l-3.111-4.784h6.481c.552 0 1-.448 1-1 0-4.962-4.038-9-9-9h-40c-1.654 0-3 1.346-3 3v6 25c0 1.654 1.346 3 3 3h4.08c.488 3.387 3.401 6 6.92 6s6.432-2.613 6.92-6h19.16c.488 3.387 3.401 6 6.92 6s6.432-2.613 6.92-6h3.08c1.653 0 2.999-1.345 3-2.999.001-2.039.107-6.08.108-6.121.002-.06-.002-.12-.011-.179-.047-.306-.232-1.348-.626-1.934-.861-1.28-2.59-1.935-4.117-2.512zm-52.354-21.255h40c3.521 0 6.442 2.612 6.929 6h-7.253-.676-40v-5c0-.551.449-1 1-1zm-1 32v-24h29v25h-10.08c-.488-3.387-3.401-6-6.92-6s-6.432 2.613-6.92 6h-4.08c-.551 0-1-.449-1-1zm12 7c-2.757 0-5-2.243-5-5s2.243-5 5-5 5 2.243 5 5-2.243 5-5 5zm33 0c-2.757 0-5-2.243-5-5s2.243-5 5-5 5 2.243 5 5-2.243 5-5 5zm11-7c0 .551-.449 1-1 1h-3.08c-.488-3.387-3.401-6-6.92-6s-6.432 2.613-6.92 6h-7.08v-25h9 .133l3.821 5.875c.379.583.754 1.214 1.138 1.859 1.433 2.409 3.058 5.14 5.566 6.536.569.317 1.258.578 1.989.854 1.246.472 2.659 1.006 3.164 1.758.086.133.222.613.296 1.041-.016.628-.106 4.19-.107 6.077z"/><path d="m43.857 20.485c-.18-.301-.506-.485-.857-.485h-5c-.552 0-1 .448-1 1v10c0 .552.448 1 1 1h11c.36 0 .693-.194.87-.507.178-.313.173-.698-.013-1.007zm-4.857 9.515v-8h3.434l4.8 8z"/><path d="m24 32h6c.552 0 1-.448 1-1v-10c0-.552-.448-1-1-1h-6c-.552 0-1 .448-1 1v10c0 .552.448 1 1 1zm1-10h4v8h-4z"/><path d="m17 28c.552 0 1-.448 1-1v-6c0-.552-.448-1-1-1h-10c-.552 0-1 .448-1 1v6c0 .552.448 1 1 1zm-9-6h8v4h-8z"/><path d="m16 41c-1.654 0-3 1.346-3 3s1.346 3 3 3 3-1.346 3-3-1.346-3-3-3zm0 4c-.551 0-1-.449-1-1s.449-1 1-1 1 .449 1 1-.449 1-1 1z"/><path d="m49 41c-1.654 0-3 1.346-3 3s1.346 3 3 3 3-1.346 3-3-1.346-3-3-3zm0 4c-.551 0-1-.449-1-1s.449-1 1-1 1 .449 1 1-.449 1-1 1z"/><path d="m37 33h5v2h-5z"/></svg>