<svg id="Layer_1_1_" enable-background="new 0 0 64 64" height="512" viewBox="0 0 64 64" width="512" xmlns="http://www.w3.org/2000/svg"><path d="m52.236 40c-1.4-.701-3.072-.699-4.473 0-.274.137-.525.304-.764.482v-4.482h1v3h2v-4c0-.553-.448-1-1-1h-.42l-7.168-12.544 8.38-10.844c.233-.302.274-.71.106-1.052-.168-.343-.516-.56-.897-.56h-9.762c-.16-.308-.363-.534-.516-.693-.202-.21-.202-.22-.202-.309s0-.099.202-.309c.284-.296.758-.791.758-1.693s-.475-1.396-.759-1.691c-.201-.21-.201-.219-.201-.307s0-.097.201-.307c.284-.295.759-.789.759-1.691h-2c0 .088 0 .097-.201.306-.284.296-.759.79-.759 1.692s.475 1.396.759 1.691c.201.21.201.219.201.307 0 .089 0 .099-.202.309-.284.296-.758.791-.758 1.693 0 .417.106.738.243 1.002h-3.525c-.16-.308-.363-.534-.516-.693-.202-.21-.202-.22-.202-.309s0-.099.202-.309c.284-.296.758-.791.758-1.693s-.475-1.396-.759-1.691c-.201-.21-.201-.219-.201-.307s0-.097.201-.307c.284-.295.759-.789.759-1.691h-2c0 .088 0 .097-.201.306-.284.296-.759.79-.759 1.692s.475 1.396.759 1.691c.201.21.201.219.201.307 0 .089 0 .099-.202.309-.284.296-.758.791-.758 1.693 0 .417.106.738.243 1.002h-3.525c-.16-.308-.363-.534-.516-.693-.202-.21-.202-.22-.202-.309s0-.099.202-.309c.284-.296.758-.791.758-1.693s-.475-1.396-.759-1.691c-.201-.21-.201-.219-.201-.307s0-.097.201-.307c.284-.295.759-.789.759-1.691h-2c0 .088 0 .097-.201.306-.284.296-.759.79-.759 1.692s.475 1.396.759 1.691c.201.21.201.219.201.307 0 .089 0 .099-.202.309-.284.296-.758.791-.758 1.693 0 .417.106.738.243 1.002h-9.763c-.381 0-.729.217-.897.56-.168.342-.127.75.106 1.052l8.38 10.844-7.169 12.544h-.42c-.552 0-1 .447-1 1v4h2v-3h1v25c0 .553.448 1 1 1h28c.552 0 1-.447 1-1v-1.406c4.947-2.725 8-7.851 8-13.538v-1.584c0-1.906-1.059-3.619-2.764-4.472zm-5.273-29-14.963 19.364-14.963-19.364zm-29.24 23 6.189-10.831 7.296 9.442c.19.245.482.389.792.389s.602-.144.792-.389l7.296-9.442 6.189 10.831h-.277-28zm27.277 26h-26v-24h26v8.472 1.528zm8-13.944c0 4.571-2.264 8.726-6 11.206v-11.262-1.528c0-1.144.635-2.171 1.658-2.683.841-.42 1.844-.42 2.684 0 1.023.512 1.658 1.539 1.658 2.683z"/></svg>