<svg id="Layer_1_1_" enable-background="new 0 0 64 64" height="512" viewBox="0 0 64 64" width="512" xmlns="http://www.w3.org/2000/svg"><path d="m61 12h-58c-.552 0-1 .447-1 1v38c0 .553.448 1 1 1h58c.552 0 1-.447 1-1v-38c0-.553-.448-1-1-1zm-1 2v4h-5v-1c0-.553-.448-1-1-1h-12c-.552 0-1 .447-1 1v1h-37v-4zm-5 6h5v2h-5zm-2-2v6h-10v-6zm-12 4h-37v-2h37zm-10 14h3v7h-3zm0 9h4c.552 0 1-.447 1-1v-9c0-.553-.448-1-1-1h-4v-2h6v18h-6zm4-15h-2v-2h2zm4 20v-19c0-.553-.448-1-1-1h-1v-3c0-.553-.448-1-1-1h-4c-.552 0-1 .447-1 1v3h-1c-.552 0-1 .447-1 1v19h-25v-26h37v1c0 .553.448 1 1 1h12c.552 0 1-.447 1-1v-1h5v26z"/><path d="m17 25c-6.065 0-11 4.935-11 11s4.935 11 11 11 11-4.935 11-11-4.935-11-11-11zm0 20c-4.962 0-9-4.037-9-9s4.038-9 9-9 9 4.037 9 9-4.038 9-9 9z"/><path d="m20 33v-3c0-.553-.448-1-1-1h-4c-.552 0-1 .447-1 1v3h-3c-.552 0-1 .447-1 1v4c0 .553.448 1 1 1h3v3c0 .553.448 1 1 1h4c.552 0 1-.447 1-1v-3h3c.552 0 1-.447 1-1v-4c0-.553-.448-1-1-1zm2 4h-3c-.552 0-1 .447-1 1v3h-2v-3c0-.553-.448-1-1-1h-3v-2h3c.552 0 1-.447 1-1v-3h2v3c0 .553.448 1 1 1h3z"/><path d="m55 29h-14v2h14c.551 0 1 .448 1 1v14c0 .552-.449 1-1 1h-14v2h14c1.654 0 3-1.346 3-3v-14c0-1.654-1.346-3-3-3z"/><path d="m51 38c1.654 0 3-1.346 3-3s-1.346-3-3-3-3 1.346-3 3 1.346 3 3 3zm0-4c.551 0 1 .448 1 1s-.449 1-1 1-1-.448-1-1 .449-1 1-1z"/><path d="m51 46c1.654 0 3-1.346 3-3s-1.346-3-3-3-3 1.346-3 3 1.346 3 3 3zm0-4c.551 0 1 .448 1 1s-.449 1-1 1-1-.448-1-1 .449-1 1-1z"/><path d="m43 38c1.654 0 3-1.346 3-3s-1.346-3-3-3-3 1.346-3 3 1.346 3 3 3zm0-4c.551 0 1 .448 1 1s-.449 1-1 1-1-.448-1-1 .449-1 1-1z"/><path d="m46 43c0-1.654-1.346-3-3-3s-3 1.346-3 3 1.346 3 3 3 3-1.346 3-3zm-4 0c0-.552.449-1 1-1s1 .448 1 1-.449 1-1 1-1-.448-1-1z"/></svg>