<svg id="Layer_1_1_" enable-background="new 0 0 64 64" height="512" viewBox="0 0 64 64" width="512" xmlns="http://www.w3.org/2000/svg"><path d="m5 62h32c.334 0 .646-.167.832-.445l2-3c.109-.164.168-.358.168-.555v-33c0-.2-.06-.396-.173-.562l-1.827-2.691v-2.747h1c.552 0 1-.447 1-1v-6c0-.553-.448-1-1-1h-36c-.552 0-1 .447-1 1v6c0 .553.448 1 1 1h1v2.747l-1.827 2.692c-.113.165-.173.361-.173.561v33c0 .197.059.391.168.555l2 3c.186.278.498.445.832.445zm33-27.247c-3.777 7.438-10.033 13.415-17.645 16.841l-7.57 3.406h-8.785v-27h34zm-16.824 18.665c6.927-3.118 12.787-8.242 16.824-14.629v8.739c-6.47 5.294-17.114 7.298-18.087 7.472h-2.253zm16.824-3.375v4.957h-10.181c3.253-1.092 7.011-2.696 10.181-4.957zm-34-37.043h34v4h-34zm32 6v2.054h-30v-2.054zm-30.47 4.054h30.94l1.53 2.254v.692h-34v-.692zm-1.53 33.946h34v.697l-1.535 2.303h-30.93l-1.535-2.303z"/><path d="m12.679 40h1.321c.036 0 .072-.001.107-.003 1.227 1.872 3.292 3.003 5.572 3.003 1.831 0 3.321-1.49 3.321-3.321 0-3.683-2.996-6.679-6.679-6.679h-1.321c-.036 0-.072.001-.107.003-1.227-1.871-3.292-3.003-5.572-3.003-1.831 0-3.321 1.49-3.321 3.321 0 3.683 2.996 6.679 6.679 6.679zm-3.358-8c1.803 0 3.415 1.012 4.206 2.64.129.267.363.456.65.527.285.072.584.007.823-.167h1.321c2.58 0 4.679 2.099 4.679 4.679 0 .728-.593 1.321-1.321 1.321-1.803 0-3.414-1.012-4.205-2.64-.129-.267-.363-.455-.65-.526-.077-.02-.156-.029-.233-.029-.21 0-.416.068-.59.195h-1.321c-2.581 0-4.68-2.099-4.68-4.679 0-.728.593-1.321 1.321-1.321z"/><path d="m27.889 43.492c.529 0 1.045-.127 1.511-.396.864-.499 1.436-1.422 1.57-2.532.123-1.021-.122-2.123-.689-3.105-1.225-2.122-3.613-3.043-5.323-2.057-.864.499-1.436 1.422-1.57 2.532-.123 1.021.122 2.123.689 3.105.891 1.545 2.398 2.453 3.812 2.453zm-2.516-5.318c.034-.282.155-.792.584-1.039.162-.094.346-.138.54-.138.696 0 1.534.566 2.051 1.462.347.602.506 1.281.436 1.866-.034.282-.155.792-.584 1.039-.742.428-1.929-.179-2.591-1.324-.348-.602-.506-1.281-.436-1.866z"/><path d="m61 2c-.355 0-.667.186-.845.464l-1.159 1.111-1.312-1.257c-.387-.372-.998-.37-1.384 0l-1.309 1.256-1.308-1.256c-.387-.371-.998-.371-1.385 0l-1.307 1.255-1.306-1.254c-.387-.373-1-.373-1.386 0l-1.302 1.253-1.305-1.253c-.29-.278-.716-.355-1.085-.199-.368.157-.607.52-.607.92v4.96h.025c0 .081-.016.162.004.242l.971 3.881v39.754l-.97 3.881c-.02.08-.004.161-.004.242h-.026v4.96c0 .4.239.763.607.92.368.156.795.081 1.084-.198l1.312-1.257 1.312 1.257c.387.372.998.37 1.384 0l1.309-1.256 1.308 1.256c.387.371.998.371 1.385 0l1.307-1.255 1.306 1.254c.387.373 1 .373 1.386 0l1.302-1.253 1.305 1.253c.19.183.439.279.693.279.132 0 .266-.026.392-.08.369-.157.608-.52.608-.92v-4.96h-.025c0-.081.016-.162-.004-.242l-.971-3.881v-39.754l.97-3.881c.02-.08.004-.161.004-.242h.026v-5c0-.553-.448-1-1-1zm-14.694 3.681c.388.373 1 .373 1.386 0l1.302-1.253 1.305 1.253c.387.373.999.372 1.385.001l1.308-1.256 1.308 1.256c.387.371.998.371 1.385 0l1.309-1.256 1.312 1.256c.387.371.997.371 1.384 0l.31-.299v1.617h-14v-1.612zm13.413 49.319h-13.438l.689-2.758c.02-.079.03-.16.03-.242v-39h7v-2h-7.219l-.5-2h13.438l-.689 2.758c-.02.079-.03.16-.03.242v39h-7v2h7.219zm-.025 3.319c-.388-.373-1-.373-1.386 0l-1.302 1.253-1.305-1.253c-.387-.373-.999-.372-1.385-.001l-1.308 1.256-1.308-1.256c-.387-.371-.998-.371-1.385 0l-1.309 1.256-1.312-1.256c-.387-.371-.997-.371-1.384 0l-.31.299v-1.617h14v1.612z"/><path d="m58.882 29.528c-.174-.325-.513-.528-.882-.528h-2.382l2.276-4.553c.155-.31.138-.678-.044-.973s-.503-.474-.85-.474h-5c-.395 0-.753.232-.914.594l-4 9c-.138.31-.109.667.075.951s.501.455.839.455h2.753l-1.729 7.783c-.104.47.141.947.583 1.137.128.054.261.08.393.08.326 0 .642-.16.833-.445l8-12c.204-.307.223-.701.049-1.027zm-6.744 7.463.838-3.774c.066-.296-.006-.605-.196-.843-.19-.236-.477-.374-.78-.374h-2.461l3.111-7h2.732l-2.276 4.553c-.155.31-.138.678.044.973s.503.474.85.474h2.131z"/></svg>