<svg id="Layer_1_1_" enable-background="new 0 0 64 64" height="512" viewBox="0 0 64 64" width="512" xmlns="http://www.w3.org/2000/svg"><path d="m23.297 16.83c-.704-.218-1.366-.468-1.967-.74l-.826 1.821c.677.307 1.416.586 2.199.829z"/><path d="m50.259 17.838-1.272-6.994c-.133-5.296-6.92-8.844-16.987-8.844s-16.854 3.548-16.987 8.844l-1.273 7.001c-7.465 2.567-11.74 6.249-11.74 10.155 0 1.479 1.472 3.711 4.376 5.912 3.701 8.372 11.684 13.965 21.428 14.974.62.064 1.081.533 1.163 1.114h-.967c-.553 0-1 .448-1 1v4c0 .552.447 1 1 1h.884c-.43 1.99-2.042 4-3.884 4h-11v2h11c3.035 0 5.452-3.036 5.914-6h2.172c.462 2.964 2.879 6 5.914 6h11v-2h-11c-1.842 0-3.454-2.01-3.884-4h3.884c.553 0 1-.448 1-1v-4c0-.552-.447-1-1-1h-3.967c.083-.581.544-1.05 1.163-1.114 9.166-.948 16.962-6.029 20.92-13.607 3.241-2.089 4.884-4.525 4.884-7.279 0-3.918-4.276-7.602-11.741-10.162zm-18.259-13.838c8.832 0 15 2.878 15 7s-6.168 7-15 7c-2.062 0-4.021-.162-5.826-.481l-.348 1.97c1.919.339 3.996.511 6.174.511 7.531 0 13.224-1.988 15.674-5.204l1.325 7.289c-.101 4.299-7.845 7.915-16.999 7.915s-16.898-3.616-16.999-7.915l1.324-7.284c.544.713 1.248 1.371 2.112 1.961l1.127-1.652c-1.702-1.161-2.564-2.544-2.564-4.11 0-4.122 6.168-7 15-7zm-27.927 24.394c.663-.424 2.559-1.127 6.48.834 2.833 1.417 5.457 3.422 7.995 5.363.484.37.967.739 1.449 1.103.416.313.832.639 1.251.966.756.591 1.546 1.199 2.371 1.773-12.659-1.894-18.849-7.759-19.546-10.039zm30.927 23.606v2h-6v-2zm3 2h-1v-2h1zm-2.009-7.103c-1.646.17-2.89 1.491-2.975 3.103h-2.032c-.085-1.612-1.329-2.933-2.974-3.103-7.79-.807-14.352-4.765-18.194-10.793 4.717 2.548 11.545 4.656 20.429 4.904.075.003.146.018.222.019.394.005.782.007 1.169.007.073 0 .141-.003.213-.004.051 0 .1.002.151.002v-.005c7.965-.033 14.588-1.113 20.192-3.302.494-.193.963-.391 1.419-.593-3.956 5.431-10.31 9.009-17.62 9.765zm15.473-11.034c-5.526 2.159-12.122 3.187-20.15 3.16-.342-.004-.687-.005-1.022-.014-2.925-.121-5.411-2.048-7.812-3.925-.428-.334-.854-.667-1.277-.987-.479-.361-.959-.728-1.439-1.095-2.612-1.997-5.313-4.062-8.315-5.563-3.195-1.598-5.418-1.7-6.888-1.363 1.201-2.147 4.312-4.28 8.767-5.958l-.31 1.704c-.012.058-.018.118-.018.178 0 5.607 8.346 10 19 10s19-4.393 19-10c0-.06-.006-.12-.017-.179l-.311-1.712c5.793 2.178 9.328 5.132 9.328 7.891 0 3.005-2.872 5.651-8.536 7.863z"/></svg>