<svg id="Layer_1_1_" enable-background="new 0 0 64 64" height="512" viewBox="0 0 64 64" width="512" xmlns="http://www.w3.org/2000/svg"><path d="m32 27c-3.309 0-6 2.691-6 6s2.691 6 6 6 6-2.691 6-6-2.691-6-6-6zm1 9.858v-2.858h-2v2.858c-1.399-.364-2.494-1.459-2.858-2.858h2.858v-2h-2.858c.364-1.399 1.459-2.494 2.858-2.858v2.858h2v-2.858c1.399.364 2.494 1.459 2.858 2.858h-2.858v2h2.858c-.364 1.399-1.459 2.494-2.858 2.858z"/><path d="m32 14c-14.449 0-30 2.503-30 8v8c0 4.516 10.561 6.467 16 7.172v.828c0 2.206 1.794 4 4 4h20c2.206 0 4-1.794 4-4v-.829c5.44-.705 16-2.655 16-7.171v-8c0-5.497-15.551-8-30-8zm-28 16v-4.881c3.328 2.358 10.028 3.538 14 4.053v5.978c-10.231-1.346-14-3.788-14-5.15zm40 8c0 1.103-.897 2-2 2h-20c-1.103 0-2-.897-2-2v-10c0-1.103.897-2 2-2h20c1.103 0 2 .897 2 2zm-2-14h-20c-1.918 0-3.521 1.358-3.908 3.162-3.474-.453-6.213-1.03-8.307-1.652 5.408-1.568 13.559-2.51 22.215-2.51s16.807.942 22.215 2.51c-2.094.622-4.832 1.199-8.306 1.652-.388-1.804-1.991-3.162-3.909-3.162zm4 11.15v-5.978c3.972-.515 10.672-1.695 14-4.053v4.881c0 1.362-3.77 3.805-14 5.15zm11.223-10.74c-5.429-2.106-15.015-3.41-25.223-3.41-10.209 0-19.795 1.303-25.224 3.41-1.937-.891-2.776-1.77-2.776-2.41 0-2.452 9.971-6 28-6s28 3.548 28 6c0 .64-.839 1.519-2.777 2.41z"/><circle cx="41" cy="33" r="1"/><circle cx="23" cy="33" r="1"/><path d="m31 45h2v5h-2z"/><path d="m36.5 43.5h2v5h-2z" transform="matrix(.8 -.6 .6 .8 -20.103 31.711)"/><path d="m24 45h5v2h-5z" transform="matrix(.6 -.8 .8 .6 -26.2 39.6)"/></svg>