<svg id="Layer_1_1_" enable-background="new 0 0 64 64" height="512" viewBox="0 0 64 64" width="512" xmlns="http://www.w3.org/2000/svg"><path d="m59 36h-7.839c-.358 0-.69-.193-.868-.504l-6.849-11.984c-.533-.933-1.531-1.512-2.605-1.512h-.839v-1h1c.552 0 1-.447 1-1v-3.465l5.555-3.703c.25-.166.411-.436.44-.733s-.076-.594-.288-.806l-3.362-3.363c.38-.141.655-.5.655-.93v-4c0-.553-.448-1-1-1h-38c-.552 0-1 .447-1 1v4c0 .43.275.789.655.93l-3.362 3.362c-.212.212-.317.508-.288.806s.191.567.44.733l5.555 3.704v3.465c0 .553.448 1 1 1h1v1h-1c-1.654 0-3 1.346-3 3v13h-3c-.552 0-1 .447-1 1v14c0 .553.448 1 1 1h1v3c0 .553.448 1 1 1h5c.392 0 .748-.229.91-.586l4.734-10.414h10.712l4.734 10.414c.162.357.518.586.91.586h11c.451 0 .846-.302.965-.737l2.799-10.263h13.236v5h2v-6-7c0-1.654-1.346-3-3-3zm-19-17h-4v-8c0-.553-.448-1-1-1h-20c-.552 0-1 .447-1 1v8h-4v-11h30zm-24 0v-7h7.938c-.494 3.94-3.866 7-7.938 7zm9-3.643c.705 1.45 1.765 2.687 3.046 3.643h-6.091c1.28-.956 2.34-2.193 3.045-3.643zm1.062-3.357h7.938v7c-4.072 0-7.444-3.06-7.938-7zm15.938 2.132v-5.718l3.43 3.431zm-35-10.132h36v2h-2-32-2zm-2.43 7.845 3.43-3.431v5.717zm7.43 9.155h3 1 18 1 3v1h-26zm-4 4c0-.552.449-1 1-1h31.839c.358 0 .69.193.868.504l6.849 11.984c.533.933 1.531 1.512 2.605 1.512h7.839c.551 0 1 .448 1 1v2h-17c-.451 0-.846.302-.965.737l-2.799 10.263h-3.592l-4.734-10.414c-.162-.357-.518-.586-.91-.586h-18c-.42 0-.796.263-.94.658l-3.06 8.416v-11.074zm-4 15h2v12h-2zm23 5h-12c-.392 0-.748.229-.91.586l-4.734 10.414h-3.356v-2h1 1c.42 0 .796-.263.94-.658l3.76-10.342h16.656l4.091 9h-2.621l-2.916-6.414c-.162-.357-.518-.586-.91-.586zm5.644 11-.909-2h11.047l-.545 2zm13.356-11c-.451 0-.846.302-.965.737l-1.708 6.263h-2.018l2.454-9h16.237v2z"/><path d="m53 48c-3.86 0-7 3.141-7 7s3.14 7 7 7 7-3.141 7-7-3.14-7-7-7zm0 12c-2.757 0-5-2.243-5-5s2.243-5 5-5 5 2.243 5 5-2.243 5-5 5z"/><path d="m21 48c-3.86 0-7 3.141-7 7s3.14 7 7 7 7-3.141 7-7-3.14-7-7-7zm0 12c-2.757 0-5-2.243-5-5s2.243-5 5-5 5 2.243 5 5-2.243 5-5 5z"/><path d="m53 52c-1.654 0-3 1.346-3 3s1.346 3 3 3 3-1.346 3-3-1.346-3-3-3zm0 4c-.551 0-1-.448-1-1s.449-1 1-1 1 .448 1 1-.449 1-1 1z"/><path d="m21 52c-1.654 0-3 1.346-3 3s1.346 3 3 3 3-1.346 3-3-1.346-3-3-3zm0 4c-.551 0-1-.448-1-1s.449-1 1-1 1 .448 1 1-.449 1-1 1z"/><path d="m11 38h8c.552 0 1-.447 1-1v-10c0-.553-.448-1-1-1h-8c-.552 0-1 .447-1 1v10c0 .553.448 1 1 1zm1-10h6v8h-6z"/><path d="m23 38h8c.552 0 1-.447 1-1v-10c0-.553-.448-1-1-1h-8c-.552 0-1 .447-1 1v10c0 .553.448 1 1 1zm1-10h6v8h-6z"/><path d="m35 38h10c.36 0 .693-.193.87-.507.178-.314.173-.699-.013-1.008l-6-10c-.18-.3-.506-.485-.857-.485h-4c-.552 0-1 .447-1 1v10c0 .553.448 1 1 1zm1-10h2.434l4.8 8h-7.234z"/><path d="m35 39h4v2h-4z"/></svg>