<svg id="Layer_1_1_" enable-background="new 0 0 64 64" height="512" viewBox="0 0 64 64" width="512" xmlns="http://www.w3.org/2000/svg"><path d="m32 58c1.654 0 3-1.346 3-3s-1.346-3-3-3-3 1.346-3 3 1.346 3 3 3zm0-4c.552 0 1 .449 1 1s-.448 1-1 1-1-.449-1-1 .448-1 1-1z"/><path d="m17 59.5c0 1.378 1.121 2.5 2.5 2.5h25c1.379 0 2.5-1.122 2.5-2.5s-1.121-2.5-2.5-2.5c-.275 0-.5-.224-.5-.5v-6.5c0-1.103-.897-2-2-2v-21c1.103 0 2-.897 2-2v-5c0-1.103-.897-2-2-2h-1.82l-3.201-15.206c-.098-.463-.506-.794-.979-.794h-3v2h2.188l2.948 14h-12.272l2.948-14h2.188v-2h-3c-.473 0-.881.331-.979.794l-3.201 15.206h-1.82c-1.103 0-2 .897-2 2v5c0 1.103.897 2 2 2v21c-1.103 0-2 .897-2 2v6.5c0 .276-.225.5-.5.5-1.379 0-2.5 1.122-2.5 2.5zm23-14.5h-5v-2.142c1.721-.447 3-2 3-3.858v-10c0-.732-.212-1.409-.556-2h2.556zm-12-16c0-1.103.897-2 2-2h4c1.103 0 2 .897 2 2v10c0 1.103-.897 2-2 2h-4c-1.103 0-2-.897-2-2zm3 14h2v2h-2zm11-23v1h-1.188l-.211-1zm-3.443 0 .464 2.206c.098.463.506.794.979.794h2v2h-8-4-8v-2h2c.473 0 .881-.331.979-.794l.464-2.206zm-15.158 0-.211 1h-1.188v-1zm3.157 7c-.344.591-.556 1.268-.556 2v10c0 1.858 1.279 3.411 3 3.858v2.142h-5v-18zm-2.556 20h16v1h-16zm-2 9.5v-6.5h20v6.5c0 1.378 1.121 2.5 2.5 2.5.275 0 .5.224.5.5s-.225.5-.5.5h-25c-.275 0-.5-.224-.5-.5s.225-.5.5-.5c1.379 0 2.5-1.122 2.5-2.5z"/><path d="m45 33h4v2h-4z"/><path d="m45.597 36.916h2v3.722h-2z" transform="matrix(.657 -.754 .754 .657 -13.252 48.42)"/><path d="m44.701 28.168h3.713v2h-3.713z" transform="matrix(.777 -.63 .63 .777 -7.977 35.834)"/><path d="m15 33h4v2h-4z"/><path d="m16.403 27.362h2v3.722h-2z" transform="matrix(.657 -.754 .754 .657 -16.061 23.138)"/><path d="m15.586 37.831h3.713v2h-3.713z" transform="matrix(.777 -.63 .63 .777 -20.562 19.654)"/></svg>