<svg id="Layer_1_1_" enable-background="new 0 0 64 64" height="512" viewBox="0 0 64 64" width="512" xmlns="http://www.w3.org/2000/svg"><path d="m61 10h-47v-4c0-.347-.18-.668-.475-.851-.295-.184-.663-.199-.973-.044l-10 5 .005.009c-.327.165-.557.495-.557.886v42c0 .553.447 1 1 1h47.764l9.789 4.895c.141.07.294.105.447.105.183 0 .365-.05.525-.149.295-.183.475-.504.475-.851v-5-42c0-.553-.447-1-1-1zm-49 0h-4.764l4.764-2.382zm-8 2h56v40h-56zm51.236 42h4.764v2.382z"/><circle cx="12" cy="32" r="1"/><path d="m12 43c.323 0 .626-.156.813-.419.651-.911 6.296-9.022 4.131-13.229-.802-1.561-2.466-2.352-4.944-2.352s-4.142.791-4.944 2.353c-2.165 4.206 3.479 12.317 4.131 13.229.187.262.49.418.813.418zm-3.166-12.732c.433-.841 1.498-1.268 3.166-1.268s2.733.427 3.166 1.267c1.068 2.075-1.135 6.764-3.166 9.945-2.033-3.179-4.236-7.866-3.166-9.944z"/><path d="m24 33.429h2v3h-2z"/><path d="m37 31.5v2.643h2v-2.643c0-.14-.004-.278-.012-.415l-1.996.115c.006.1.008.199.008.3z"/><path d="m46.134 41.822c1.123-.25 2.19-.766 3.089-1.493l-1.26-1.555c-.658.534-1.44.912-2.263 1.095z"/><path d="m49.096 37.523 1.67 1.102c.636-.964 1.045-2.078 1.182-3.222l-1.986-.238c-.101.837-.399 1.652-.866 2.358z"/><path d="m24 38.429h2v3h-2z"/><path d="m50 25.286h2v3h-2z"/><path d="m36.645 29.549 1.869-.709c-.407-1.075-1.07-2.058-1.918-2.843l-1.359 1.467c.621.576 1.109 1.298 1.408 2.085z"/><path d="m26.168 26.226 1.422 1.406c.597-.604 1.333-1.065 2.128-1.337l-.645-1.893c-1.088.37-2.092 1.001-2.905 1.824z"/><path d="m22 47h-1.715v2h1.715c.579 0 1.139-.121 1.662-.361l-.832-1.819c-.261.119-.54.18-.83.18z"/><path d="m15.285 47h3v2h-3z"/><path d="m24 44.998c-.001.324-.075.634-.223.918l1.777.918c.291-.562.445-1.195.446-1.834v-1.571h-2z"/><path d="m13 45h-2c0 1.366.687 2.624 1.836 3.365l1.084-1.682c-.576-.37-.92-.999-.92-1.683z"/><path d="m50 30.286h2v3h-2z"/><path d="m37.235 36.374c.286 1.113.838 2.164 1.596 3.038l1.512-1.311c-.556-.641-.961-1.41-1.17-2.226z"/><path d="m34.692 24.712c-1.002-.473-2.076-.712-3.192-.712l-.164.002.041 2 .123-.002c.819 0 1.606.175 2.339.521z"/><path d="m24 31.418 2 .021c.009-.86.211-1.682.6-2.44l-1.779-.912c-.533 1.037-.809 2.158-.821 3.331z"/><path d="m44.017 39.979c-.854-.075-1.657-.34-2.388-.787l-1.045 1.705c.982.603 2.109.974 3.259 1.074z"/><path d="m53 23h-1v-2.434l4.515-2.709c.3-.18.485-.505.485-.857s-.185-.677-.485-.857l-5-3c-.311-.185-.693-.19-1.008-.013-.314.178-.507.51-.507.87v9h-1v2h4zm-1-7.233 2.057 1.233-2.057 1.233z"/><path d="m13 20h12c1.654 0 3-1.346 3-3s-1.346-3-3-3h-12c-1.654 0-3 1.346-3 3s1.346 3 3 3zm0-4h12c.552 0 1 .448 1 1s-.448 1-1 1h-12c-.552 0-1-.448-1-1s.448-1 1-1z"/><path d="m35 44c-1.654 0-3 1.346-3 3s1.346 3 3 3 3-1.346 3-3-1.346-3-3-3zm0 4c-.552 0-1-.448-1-1s.448-1 1-1 1 .448 1 1-.448 1-1 1z"/><path d="m55 44h-11c-1.654 0-3 1.346-3 3s1.346 3 3 3h11c1.654 0 3-1.346 3-3s-1.346-3-3-3zm0 4h-11c-.552 0-1-.448-1-1s.448-1 1-1h11c.552 0 1 .448 1 1s-.448 1-1 1z"/><path d="m44 37c1.654 0 3-1.346 3-3v-18c0-1.654-1.346-3-3-3s-3 1.346-3 3v18c0 1.654 1.346 3 3 3zm-1-21c0-.552.448-1 1-1s1 .448 1 1v18c0 .552-.448 1-1 1s-1-.448-1-1z"/><path d="m36 17c0-1.654-1.346-3-3-3s-3 1.346-3 3 1.346 3 3 3 3-1.346 3-3zm-4 0c0-.552.448-1 1-1s1 .448 1 1-.448 1-1 1-1-.448-1-1z"/></svg>