<svg id="Layer_1_1_" enable-background="new 0 0 64 64" height="512" viewBox="0 0 64 64" width="512" xmlns="http://www.w3.org/2000/svg"><path d="m42 6c0-2.206-1.794-4-4-4h-12c-2.206 0-4 1.794-4 4v11 3.142c-1.721.447-3 1.999-3 3.858v36c0 1.103.897 2 2 2h22c1.103 0 2-.897 2-2v-36c0-1.859-1.279-3.411-3-3.858v-3.142zm-16-2h12c1.103 0 2 .897 2 2v10h-1v-3c0-.553-.447-1-1-1h-2v-5c0-.553-.447-1-1-1h-6c-.553 0-1 .447-1 1v5h-2c-.553 0-1 .447-1 1v3h-1v-10c0-1.103.897-2 2-2zm14 16h-16v-2h16zm-6-11h-2v2h2v1h-4v-4h4zm3 5v2h-10v-2zm-16 13h22l.002 28h-22.002zm0 33v-3h22.002v3zm22-36v1h-22v-1c0-1.103.897-2 2-2h18c1.103 0 2 .897 2 2z"/><path d="m42.882 40.118-2.578-2.579c-.224-1.434-1.457-2.539-2.953-2.539-1.413 0-2.593.985-2.91 2.302-.193.089-.433.207-.702.348-.584-2.676-1.929-7.542-4.142-8.478-.708-.298-1.472-.214-2.151.238-.682.454-1.067 1.12-1.113 1.926-.067 1.151.634 2.518 1.585 3.821-1.765-.715-3.516-1.123-4.64-.625-.694.308-1.146.917-1.271 1.716-.127.799.098 1.532.649 2.123 1.384 1.482 4.83 1.788 7.435 1.788.049 0 .094-.001.142-.001-2.005 1.9-3.882 4.756-3.882 8.842 0 .797 0 2.663 1.367 2.938.084.018.185.037.306.037.567 0 1.591-.447 3.536-3.753l1.343.672.895-1.789-1.266-.633c.346-.656.716-1.388 1.111-2.208l1.261.63.895-1.789-1.305-.653c.306-.668.626-1.386.959-2.15.517.43 1.173.698 1.898.698.977 0 1.837-.476 2.385-1.2l1.732 1.733zm-14.327-9.043c.091-.061.146-.079.188-.079.029 0 .052.01.075.02.766.323 1.708 2.478 2.432 4.978-1.599-1.687-2.98-3.531-2.922-4.54.009-.15.049-.261.227-.379zm-4.438 5.931c-.129-.138-.166-.259-.137-.445.026-.164.065-.182.107-.2.112-.05.258-.073.433-.073 1.005 0 2.962.78 5 1.857-2.361-.051-4.688-.373-5.403-1.139zm4.246 12.475c-.008-.136-.013-.295-.013-.481 0-4.52 2.784-7.287 4.929-8.75-1.79 3.978-3.78 7.831-4.916 9.231zm8.988-10.481c-.552 0-1-.448-1-1s.448-1 1-1 1 .448 1 1-.449 1-1 1z"/></svg>