<svg id="Layer_1_1_" enable-background="new 0 0 64 64" height="512" viewBox="0 0 64 64" width="512" xmlns="http://www.w3.org/2000/svg"><path d="m56.521 35.122-11 6c-.223.121-.391.322-.47.562l-3.772 11.316h-1.379l-1.79-17h.89c.553 0 1-.448 1-1v-4c0-.552-.447-1-1-1h-1v-1h-2v1h-2v-1c0-.536-.031-5.298-1.105-7.447-.445-.889-1.374-1.265-2.373-1.429l1.546-3.022c.64-1.279.802-2.75.454-4.139l-.706-2.825c.108-.363.184-.74.184-1.138h-.469l-.614-2.456c-.669-2.675-3.063-4.544-5.821-4.544h-10.192c-2.759 0-5.152 1.869-5.821 4.544l-1.604 6.419c-.348 1.389-.186 2.859.454 4.137l2.268 4.55c-.645 1.466-1.047 3.902-1.2 7.304-.012.273.088.539.276.736s.45.31.723.31h.132l.632 4.424c.123.863.621 1.594 1.307 2.056l1.904 10.476-2.94 10.781c-.024.087-.01.175-.01.263h-.025v2h-9v2h10 9c.111 0 .213-.03.313-.063l.004.012 3-1c.299-.1.532-.334.632-.632l1.772-5.317h14.559c.862 0 1.625-.55 1.896-1.367l3.648-10.943 10.431-5.69h4.745v-2h-5c-.167 0-.332.042-.479.122zm-18.663 17.878c-.364-1.399-1.459-2.494-2.858-2.858v-7.142c0-.239-.085-.47-.241-.651l-5.759-6.718v-1.762l1.445.964c.164.108.358.167.555.167h3.78c.349.387.796.677 1.303.842l1.807 17.158zm-15.288-10.903c-.183.087-.326.229-.425.398l-.956-5.495h6.351l5.46 6.37v6.63h-3.181l-.839-4.196c-.055-.276-.225-.516-.466-.661l-5-3c-.287-.173-.639-.189-.944-.046zm-1.57-10.913v-1.184h-2v1h-2v-8h6v9c0 1.13.391 2.162 1.026 3h-1.21c.112-.314.184-.648.184-1 0-1.302-.839-2.402-2-2.816zm-6-3.184h-3.939c.204-2.801.7-5.394 1.165-6h2.157c.191.167.397.315.618.444v5.556zm12 6.829c-1.164-.413-2-1.525-2-2.829v-9.556c.221-.129.427-.277.618-.444l1.382-.001zm-12-15.829v-6h10v6c0 1.103-.897 2-2 2h-6c-1.103 0-2-.897-2-2zm10-8h-10v-1c0-1.103.897-2 2-2h6c1.103 0 2 .897 2 2zm5 41h3 1c.737 0 1.375.405 1.722 1h-5.722zm8-20v2h-1c-.552 0-1-.449-1-1s.448-1 1-1zm-3.816 0c-.112.314-.184.648-.184 1h-2.697l-2.303-1.535v-1.465h3v1c0 .552.447 1 1 1zm-3.079-9.553c.592 1.184.811 3.866.874 5.553h-2.979v-5.996c1.274.031 1.974.18 2.105.443zm-.823-6.248-1.944 3.8c-.03 0-.064 0-.093 0l-1.387.001c.084-.322.142-.653.142-1v-6h1c.852 0 1.638-.272 2.287-.727l.294 1.175c.232.927.124 1.906-.299 2.751zm-20.864-2.751 1.604-6.418c.447-1.784 2.043-3.03 3.882-3.03h10.191c1.839 0 3.436 1.246 3.882 3.03l.743 2.973c-.347.593-.984.997-1.72.997h-1v-1c0-2.206-1.794-4-4-4h-6c-2.206 0-4 1.794-4 4v2 7c0 .347.058.678.142 1h-1.113c-.133.002-.261.027-.386.063l-1.922-3.857c-.426-.852-.533-1.831-.303-2.758zm5.582 16.552v2c0 .552.447 1 1 1h4c.552 0 1 .449 1 1s-.448 1-1 1h-6.266c-.494 0-.92-.369-.989-.859l-.592-4.141zm.965 17.263c.039-.144.046-.295.019-.442l-1.786-9.821h4.961l2.025 11.643-.144 1.006-4.595 7.351h-3.135zm-2.965 12.737v-1h4 1c.739 0 1.386.403 1.731 1zm8.762-.308c-.464-1.33-1.598-2.344-3.006-2.615l3.047-4.875 1.212 6.969.22-.038-.025.076zm3.062-5.325-.404 1.211-1.211-6.966.569-3.98 3.329 1.998.893 4.469v1.901h-1.279c-.863 0-1.625.55-1.897 1.367z"/><path d="m60.97 53.757c-.06-.241-.208-.451-.415-.589l-3-2c-.211-.141-.467-.196-.719-.154l-6 1c-.243.041-.463.169-.617.362l-3.514 4.393c-.455.568-.705 1.283-.705 2.01 0 1.776 1.444 3.221 3.221 3.221h11.779c.553 0 1-.448 1-1v-3c0-.082-.01-.163-.03-.243zm-.97 6.243h-10.779c-.673 0-1.221-.548-1.221-1.221 0-.276.095-.547.268-.763l3.274-4.093 5.232-.872 2.35 1.566.876 3.506z"/><path d="m42.5 62c1.379 0 2.5-1.122 2.5-2.5s-1.121-2.5-2.5-2.5h-3c-1.379 0-2.5 1.122-2.5 2.5s1.121 2.5 2.5 2.5zm-3.5-2.5c0-.276.225-.5.5-.5h3c.275 0 .5.224.5.5s-.225.5-.5.5h-3c-.275 0-.5-.224-.5-.5z"/></svg>