<svg id="Layer_1_1_" enable-background="new 0 0 64 64" height="512" viewBox="0 0 64 64" width="512" xmlns="http://www.w3.org/2000/svg"><path d="m11.261 61.674c.19.207.458.326.739.326h17c.511 0 .94-.385.994-.894l2.006-18.721 2.006 18.721c.054.509.483.894.994.894h17c.281 0 .549-.119.739-.326.19-.208.283-.486.257-.766l-2.084-22.505c.055-.124.088-.259.088-.403v-7c.552 0 1-.448 1-1v-4c0-.552-.448-1-1-1h-1.419l-3.581-18.098v-3.902c0-.552-.448-1-1-1h-26c-.552 0-1 .448-1 1v3.902l-3.581 18.098h-1.419c-.552 0-1 .448-1 1v4c0 .552.448 1 1 1v7c0 .144.033.279.088.403l-2.084 22.505c-.025.28.067.558.257.766zm20.739-55.674h-4v-2h8v2zm-2 2h1v7l-1-1.333zm19 29h-3c-.551 0-1-.449-1-1v-5h4zm1-8h-6v-2h6zm-7-4c-.552 0-1 .448-1 1v4c0 .552.448 1 1 1v5c0 1.654 1.346 3 3 3h2.959l1.944 21h-15.005l-2.898-27.052v-24.948h11.179l3.364 17zm1-19h-6v-2h6zm-24-2h6v2h-6zm-.179 4h8.179v6c0 .216.07.427.2.6l2.8 3.733v14.614l-2.898 27.053h-15.005l1.944-21h2.959c1.654 0 3-1.346 3-3v-5c.552 0 1-.448 1-1v-4c0-.552-.448-1-1-1h-4.542zm-5.821 19h6v2h-6zm5 4v5c0 .551-.449 1-1 1h-3v-6z"/></svg>