<svg id="Layer_1_1_" enable-background="new 0 0 64 64" height="512" viewBox="0 0 64 64" width="512" xmlns="http://www.w3.org/2000/svg"><path d="m7.82 61.287c2.176.832 4.046 1.248 5.6 1.248 1.642 0 2.931-.465 3.854-1.395.75-.756 1.07-1.783 1.379-2.775.211-.679.412-1.321.72-1.768.733-1.06 1.81-1.597 3.201-1.597 3.04 0 5.679-2.164 6.275-5.145l.426-2.13c.35-1.747 1.704-3.102 3.451-3.451 1.156-.23 2.208-.793 3.042-1.628.795-.794 1.232-1.851 1.232-2.975v-.257l18.263-18.263c4.344-4.344 6.737-10.12 6.737-16.264v-1.887c0-.349-.182-.672-.479-.854-.296-.181-.667-.194-.978-.036-.761.391-18.68 9.613-22.25 13.183l-10.778 10.778c-.135-.02-.268-.049-.405-.064-.298-.036-.603.072-.817.287l-22.586 22.585c-1.101 1.1-1.707 2.564-1.707 4.121 0 3.682 2.284 6.935 5.82 8.287zm52.18-56.4c0 5.609-2.185 10.883-6.151 14.85l-16.87 16.87c-.07-1.745-.539-3.39-1.327-4.845l12.907-12.907c3.334-3.334 5.807-7.46 7.203-11.959 1.721-.926 3.214-1.713 4.238-2.249zm-20.293 11.82c1.829-1.829 8.092-5.455 13.43-8.384-1.36 3.402-3.393 6.52-5.992 9.118l-12.626 12.625c-1.234-1.525-2.865-2.717-4.753-3.419zm-34.586 33.586 22.235-22.235c4.39.715 7.644 4.503 7.644 8.997v2.616c0 .59-.229 1.144-.646 1.561-.554.554-1.252.928-2.021 1.081-2.541.508-4.511 2.479-5.02 5.02l-.426 2.13c-.409 2.05-2.223 3.537-4.313 3.537-2.057 0-3.732.851-4.846 2.459-.482.698-.737 1.518-.984 2.311-.249.798-.483 1.552-.89 1.961-1.171 1.178-3.702 1.071-7.32-.313-2.754-1.052-4.534-3.572-4.534-6.418 0-1.022.398-1.984 1.121-2.707z"/><path d="m29 38c1.654 0 3-1.346 3-3s-1.346-3-3-3-3 1.346-3 3 1.346 3 3 3zm0-4c.551 0 1 .449 1 1s-.449 1-1 1-1-.449-1-1 .449-1 1-1z"/><path d="m18.586 38h2.828v2h-2.828z" transform="matrix(.707 -.707 .707 .707 -21.719 25.565)"/><path d="m8.586 48h2.828v2h-2.828z" transform="matrix(.707 -.707 .707 .707 -31.719 21.423)"/></svg>