<svg id="Layer_1_1_" enable-background="new 0 0 64 64" height="512" viewBox="0 0 64 64" width="512" xmlns="http://www.w3.org/2000/svg"><path d="m60 20h-.649c-.453 0-.897.156-1.248.438l-1.708 1.365c-1.321 1.058-3.223.955-4.422-.245-1.005-1.004-2.341-1.558-3.763-1.558h-9.21c-1.103 0-2 .897-2 2v2.478l-17.1 11.895c-3.23 2.248-7.254 2.915-11.034 1.835-.48-.138-.978-.208-1.48-.208-2.97 0-5.386 2.416-5.386 5.386v4.614c0 2.757 2.243 5 5 5v1c0 .552.447 1 1 1h6c.553 0 1-.448 1-1v-1h2v1c0 .552.447 1 1 1h6c.553 0 1-.448 1-1v-1h2v1c0 .552.447 1 1 1h6c.553 0 1-.448 1-1v-1.017c2.089-.066 4.967-.329 7.291-.82.576-.122 1.146-.298 1.709-.532v2.369c0 .552.447 1 1 1h6c.553 0 1-.448 1-1v-1h2v1c0 .552.447 1 1 1h6c.553 0 1-.448 1-1v-6-26c0-1.103-.897-2-2-2zm0 22.949c-5.863-.395-8.546-4.138-9.545-6.088 3.855-.698 7.471-3.943 9.545-6.158zm-9.441-19.976c1.919 1.919 4.966 2.089 7.085.393l1.707-1.366h.649v5.652c-1.038 1.291-6.171 7.357-11 7.357-3.792 0-6.899-2.865-8.4-4.549l3.063-2.71c.214-.191.337-.463.337-.75v-5h4.21c.888 0 1.722.346 2.349.973zm-13.092 5.54c.617.914.376 2.159-.536 2.777l-3.252 2.199.641-4.71 2.263-1.574zm-7.472 7.466-4.351 2.942.599-3.921zm-2.221-2.647 4.315-3.001-.542 3.986zm11.226-8.332v-3h3v4.55l-2.339 2.069c-.111-.425-.279-.842-.538-1.226l-.899-1.33.348-.242c.268-.187.428-.494.428-.821zm-14.919 10.901-.587 3.847-3.567-1.045c.378-.217.754-.436 1.116-.688zm-2.091 5.489-1.629 1.101c-.915.618-2.16.376-2.778-.537l-1.197-1.771c.24-.065.474-.15.711-.227zm-14.604-1.39c.315 0 .628.044.931.13 1.956.56 3.966.691 5.928.455l1.683 2.489c.772 1.142 2.035 1.757 3.32 1.757.771 0 1.549-.222 2.233-.684l16.57-11.202c.447-.302.811-.682 1.091-1.107 1.648 1.849 4.938 4.823 9.167 5.127.846 1.927 3.978 7.519 11.691 7.98v2.055h-5.635c-1.292 0-2.55-.456-3.543-1.283-2.795-2.329-6.852-2.328-9.645 0-.992.827-2.25 1.283-3.542 1.283h-33.635v-3.614c0-1.867 1.519-3.386 3.386-3.386zm52.614 13h-4v-1c0-.552-.447-1-1-1h-4c-.553 0-1 .448-1 1v1h-4v-3c0-.361-.219-.681-.534-.857-.313-.177-.723-.157-1.033.032-.818.499-1.679.846-2.556 1.031-2.468.522-5.83.794-7.877.794-.553 0-1 .448-1 1v1h-4v-1c0-.552-.447-1-1-1h-4c-.553 0-1 .448-1 1v1h-4v-1c0-.552-.447-1-1-1h-4c-.553 0-1 .448-1 1v1h-4v-1c0-.552-.447-1-1-1h-1c-1.304 0-2.416-.836-2.829-2h33.464c1.758 0 3.471-.62 4.823-1.746 2.053-1.711 5.031-1.711 7.084 0h.001c1.352 1.126 3.064 1.746 4.822 1.746h5.635z"/></svg>