<svg id="Layer_1_1_" enable-background="new 0 0 64 64" height="512" viewBox="0 0 64 64" width="512" xmlns="http://www.w3.org/2000/svg"><path d="m15 62h10c3.309 0 6-2.691 6-6v-44c0-1.539-.587-2.939-1.543-4.002.765.113 1.519.181 2.225.181 1.223 0 2.307-.203 3.073-.724.814-.553 1.245-1.402 1.245-2.455 0-.724-.309-1.344-.893-1.792-2.337-1.799-9.589-.26-12.468.448-.494-.978-1.498-1.656-2.666-1.656-1.654 0-3 1.346-3 3 0 .352.072.686.184 1h-2.157c-3.309 0-6 2.691-6 6v44c0 3.309 2.691 6 6 6zm18.889-57.207c.1.077.111.124.111.207 0 .485-.187.677-.368.801-1.218.825-4.743.208-7.99-.756 3.49-.677 7.221-1.042 8.247-.252zm-14.916.207c0-.551.448-1 1-1s1 .449 1 1-.448 1-1 1-1-.449-1-1zm-7.973 7c0-2.206 1.794-4 4-4h.078c-.99.866-1.256 2.32-.593 3.477.335.585.87 1.029 1.506 1.25l.654-1.891c-.127-.043-.303-.14-.424-.353-.197-.344-.106-.784.211-1.022l1.944-1.461h3.586l1.697 1.736c.183.187.261.452.209.709l1.961.394c.182-.906-.095-1.841-.74-2.501l-.33-.338h.241c2.206 0 4 1.794 4 4v44c0 2.206-1.794 4-4 4h-.534c.831-.933 1.315-2 1.504-2.757l-1.938-.49c-.036.133-.883 3.247-4.032 3.247s-3.996-3.114-4.031-3.247l-1.938.49c.189.757.672 1.824 1.503 2.757h-.534c-2.206 0-4-1.794-4-4z"/><path d="m33 35v20c0 3.86 3.141 7 7 7h8c3.859 0 7-3.14 7-7v-20c0-3.86-3.141-7-7-7h-3.184c.049-.136.097-.273.125-.418 2.088-1.364 7.057-4.89 7.086-7.534.008-.763-.359-1.43-1.034-1.88-.675-.451-1.437-.554-2.201-.293-2.118.716-3.944 4.336-4.959 6.768-.509-.397-1.14-.643-1.833-.643-1.654 0-3 1.346-3 3 0 .37.076.721.2 1.049-3.484.399-6.2 3.362-6.2 6.951zm20 0v20c0 2.757-2.243 5-5 5h-.339c.643-.676 1.073-1.299 1.171-1.445l-1.664-1.109c-.556.833-2.062 2.554-3.168 2.554-1.1 0-2.609-1.722-3.169-2.556l-1.663 1.11c.098.147.528.769 1.171 1.445h-.339c-2.757 0-5-2.243-5-5v-19.999c0-2.353 1.639-4.319 3.832-4.848-.742.708-1.05 1.787-.762 2.787l1.922-.554c-.09-.312.024-.653.284-.848l2.047-1.537h3.408l1.772 1.813c.277.284.301.732.054 1.042-.1.125-.232.217-.384.263l.59 1.911c.536-.166 1.006-.486 1.358-.928.874-1.099.793-2.683-.188-3.687l-.347-.355c2.479.295 4.414 2.385 4.414 4.941zm-3.568-15.231c.066-.022.125-.034.18-.034.091 0 .174.031.272.097.145.096.145.144.144.194-.009.831-1.703 2.543-3.811 4.185 1.002-2.126 2.233-4.11 3.215-4.442zm-7.432 6.231c.552 0 1 .449 1 1s-.448 1-1 1-1-.449-1-1 .448-1 1-1z"/><path d="m47.445 41.168-2.318 1.545-2.42-2.42c-.391-.391-1.023-.391-1.414 0l-6 6 1.414 1.414 5.293-5.293 5.293 5.293 1.414-1.414-2.137-2.137 1.303-.869 3.42 3.42 1.414-1.414-4-4c-.338-.338-.866-.39-1.262-.125z"/><path d="m18 29.414 5.293 5.293 1.414-1.414-2.137-2.137 1.303-.869 3.42 3.42 1.414-1.414-4-4c-.338-.338-.867-.39-1.262-.125l-2.318 1.545-2.42-2.42c-.391-.391-1.023-.391-1.414 0l-6 6 1.414 1.414z"/></svg>