<svg id="Layer_1_1_" enable-background="new 0 0 64 64" height="512" viewBox="0 0 64 64" width="512" xmlns="http://www.w3.org/2000/svg"><path d="m62.229 50.464c-.177-1.838-.772-3.646-1.723-5.23l-.071-.118c-2.886-4.812-4.33-10.313-4.175-15.912.288-10.382.74-26.176.74-26.176.008-.27-.094-.531-.282-.726-.189-.193-.448-.302-.718-.302h-24c-.288 0-.562.124-.752.341-.19.216-.277.504-.24.79l2.575 19.57c1.396 10.615-3.992 21.169-13.409 26.262-3.546 1.917-7.637 3.193-11.192 4.238-.296.087-.639.174-1.009.267-2.292.576-6.126 1.542-6.126 4.825 0 2.044 1.663 3.707 3.707 3.707h17.446c1.963 0 3.943-.156 5.857-.308l.733-.058c3.13-.243 6.453-.557 9.647-1.463 3.368-.955 6.023-1.358 8.85-.41l1.938.65c1.204.403 2.458.547 3.72.418l.288-.028c5.019-.502 8.709-4.995 8.226-10.017zm-7.712-30.464h-19.272l-.263-2h19.592c-.019.664-.038 1.331-.057 2zm.113-4h-19.911l-.263-2h20.231c-.019.655-.037 1.321-.057 2zm.114-4h-20.551l-.526-4h21.191c-.035 1.191-.073 2.544-.114 4zm.227-8c-.014.503-.034 1.19-.057 2h-21.511l-.263-2zm-16.279 54.248c-3.018.855-6.228 1.157-9.257 1.393l-.735.057c-1.876.149-3.816.302-5.7.302h-17.446c-.941 0-1.707-.766-1.707-1.707 0-1.593 2.183-2.273 4.615-2.886.397-.1.766-.193 1.084-.287 3.653-1.074 7.862-2.388 11.58-4.397 10.142-5.485 15.945-16.851 14.441-28.283l-.058-.44h18.953c-.07 2.492-.139 4.942-.2 7.148-.116 4.191.624 8.325 2.128 12.197l-11.615 2.68c-.267.062-.497.23-.636.467s-.175.519-.1.782l3.505 12.268c-3.205-.734-6.122-.069-8.852.706zm15.144.564-.288.028c-.982.1-1.953-.011-2.886-.324l-.841-.282-3.57-12.496 10.937-2.523c.464.997.963 1.981 1.534 2.932l.071.118c.797 1.329 1.297 2.848 1.446 4.393l.031.321c.377 3.926-2.509 7.44-6.434 7.833z"/></svg>