<svg id="Layer_1_1_" enable-background="new 0 0 64 64" height="512" viewBox="0 0 64 64" width="512" xmlns="http://www.w3.org/2000/svg"><path d="m18.515 2.643-1.664-1c-.314-.188-.711-.189-1.029 0l-1.15.69-1.149-.69c-.315-.188-.712-.189-1.029 0l-1.154.691-1.156-.692c-.316-.189-.711-.189-1.027 0l-1.67 1c-.302.18-.487.506-.487.858v1.86c0 1.34.901 2.32 2.412 2.62.065.013.13.02.195.02h4.042l9.726 7.781c.181.145.402.219.625.219h5v3h-2c-.553 0-1 .447-1 1v3h-10v-1h-2v1h-1c-1.654 0-3 1.346-3 3s1.346 3 3 3h1v1h2v-1h9v2c0 .041.019.076.023.116l-5.234 3.49c-3.625 2.415-5.789 6.459-5.789 10.816v11.578c-.553 0-1 .447-1 1v3c0 .553.447 1 1 1h36c.553 0 1-.447 1-1v-3c0-.553-.447-1-1-1v-11.578c0-4.356-2.164-8.4-5.789-10.816l-5.234-3.49c.004-.04.023-.075.023-.116v-7c0-.553-.447-1-1-1v-3c0-.553-.447-1-1-1h-2v-3h5c.223 0 .444-.074.625-.219l9.726-7.781h4.042c.065 0 .131-.007.195-.02 1.511-.3 2.412-1.28 2.412-2.62v-1.86c0-.352-.185-.678-.486-.858l-1.67-1c-.316-.189-.711-.189-1.027 0l-1.157.692-1.152-.691c-.317-.19-.714-.188-1.029 0l-1.149.69-1.15-.69c-.316-.189-.713-.189-1.029 0l-1.664 1c-.303.18-.487.506-.487.857v2.031l-5.363 4.469h-3.721c.993-2.701-2.447-6.84-3.163-7.658-.381-.436-1.125-.436-1.506 0-.716.818-4.156 4.957-3.163 7.658h-3.721l-5.363-4.469v-2.031c0-.351-.184-.677-.485-.857zm22.485 8.826 5.641-4.7c.227-.191.359-.472.359-.769v-1.935l.664-.398 1.15.69c.316.189.713.189 1.029 0l1.149-.691 1.152.691c.316.189.712.19 1.028.001l1.156-.692.67.4v1.294c0 .168 0 .474-.714.64h-4.284c-.228 0-.447.077-.625.219l-8.375 6.7zm-2 .531v2h-14v-2zm-2 13v5h-10v-5zm-24 2c-.552 0-1-.448-1-1s.448-1 1-1h1v2zm3 0v-2h9v2zm33 33h-34v-1h34zm-1-14.578v11.578h-32v-11.578c0-3.687 1.831-7.107 4.898-9.152l6.405-4.27h9.395l6.404 4.27c3.067 2.044 4.898 5.465 4.898 9.152zm-12-22.422h-8v-2h8zm-3-4h-2v-3h2zm-3.033-9.643c-.425-.933.792-3.118 2.033-4.767 1.241 1.649 2.458 3.834 2.033 4.768-.254.559-1.383.642-2.033.642s-1.779-.083-2.033-.643zm-6.967 2.112v1.45l-8.375-6.7c-.178-.142-.397-.219-.625-.219h-4.286c-.714-.166-.714-.472-.714-.64v-1.294l.67-.4 1.156.692c.316.189.712.188 1.028-.001l1.152-.691 1.149.691c.316.189.713.19 1.029 0l1.15-.69.666.398v1.935c0 .297.132.578.359.769z"/><path d="m36.03 41.242.59 2.361c.245.979.041 2.107-.508 2.809-.157.202-.326.338-.462.374-.001 0-.001 0-.002 0-.234.059-.498-.255-.656-.596-.388-.831-.301-1.731-.035-2.914.498-2.219-.011-4.419-1.432-6.195-1.545-1.929-3.984-3.081-6.525-3.081-.362 0-.696.196-.873.513s-.168.703.021 1.012c.714 1.159 1.848 3.4 1.852 4.479.004 1.077-1.288 2.255-2.429 3.294-.448.408-.871.794-1.236 1.185-1.384 1.483-1.787 3.324-1.137 5.184 1.109 3.171 4.948 5.758 7.838 6.186.426.063.859.094 1.297.094 2.551 0 5.227-1.045 7.101-2.831 1.87-1.781 2.768-4.091 2.528-6.502-.215-2.158-1.411-4.2-3.282-5.603l-1.079-.81c-.339-.253-.801-.268-1.153-.033s-.521.664-.418 1.074zm-4.701 12.631c-.308-.045-.637-.134-.974-.248-.231-.822-.355-1.701-.355-2.625 0-.461.014-.877.038-1.252.556 1.431 1.379 3.008 2.541 4.183-.422.012-.842.002-1.25-.058zm6.359-6.229c.798-1.021 1.161-2.488.991-3.881.729.9 1.184 1.957 1.292 3.047.228 2.287-.917 3.904-1.918 4.857-.801.763-1.785 1.348-2.834 1.738-2.596-1.202-3.932-5.825-4.234-7.574-.063-.368-.327-.671-.683-.784-.36-.114-.747-.018-1.01.246-.215.216-1.292 1.506-1.292 5.707 0 .501.038.99.096 1.471-1.352-.916-2.553-2.162-3.009-3.465-.411-1.173-.179-2.206.711-3.159.32-.344.713-.699 1.12-1.07 1.448-1.319 3.09-2.814 3.082-4.78-.004-1.107-.602-2.582-1.168-3.733 1.234.361 2.341 1.08 3.132 2.068 1.034 1.292 1.404 2.893 1.042 4.507-.302 1.341-.489 2.777.174 4.198.623 1.337 1.795 1.997 2.979 1.684.567-.15 1.096-.522 1.529-1.077z"/></svg>