<svg id="Layer_1_1_" enable-background="new 0 0 64 64" height="512" viewBox="0 0 64 64" width="512" xmlns="http://www.w3.org/2000/svg"><path d="m25 62h14c2.206 0 4-1.794 4-4v-7.95l4.994-46.945c.03-.281-.061-.563-.251-.774-.189-.211-.46-.331-.743-.331h-30c-.283 0-.554.12-.743.331-.19.211-.281.493-.251.774l4.994 46.945v7.95c0 2.206 1.794 4 4 4zm11.858-6c-.447-1.721-1.999-3-3.858-3h-2c-1.859 0-3.411 1.279-3.858 3h-4.142v-5h18v5zm-2.136 0h-5.443c.347-.595.985-1 1.722-1h2c.736 0 1.374.405 1.721 1zm6.379-7h-18.202l-4.361-41h26.924zm-2.101 11h-14c-1.103 0-2-.897-2-2h18c0 1.103-.897 2-2 2zm6.888-56-.213 2h-27.35l-.213-2z"/><path d="m32 17c-3.309 0-6 2.691-6 6s2.691 6 6 6 6-2.691 6-6-2.691-6-6-6zm0 10c-2.206 0-4-1.794-4-4s1.794-4 4-4 4 1.794 4 4-1.794 4-4 4z"/><path d="m31 12h2v3h-2z"/><path d="m31 31h2v3h-2z"/><path d="m21 22h3v2h-3z"/><path d="m40 22h3v2h-3z"/><path d="m24.282 14.782h2v3h-2z" transform="matrix(.707 -.707 .707 .707 -4.108 22.646)"/><path d="m37.718 28.218h2v3h-2z" transform="matrix(.707 -.707 .707 .707 -9.674 36.082)"/><path d="m23.782 28.718h3v2h-3z" transform="matrix(.707 -.707 .707 .707 -13.609 26.581)"/><path d="m37.218 15.282h3v2h-3z" transform="matrix(.707 -.707 .707 .707 -.173 32.147)"/></svg>