<svg id="Layer_1_1_" enable-background="new 0 0 64 64" height="512" viewBox="0 0 64 64" width="512" xmlns="http://www.w3.org/2000/svg"><path d="m15.528 34.836-3.307 18.818c-.103.584.057 1.179.438 1.632.339.404.822.643 1.341.693v3.021c0 .553.448 1 1 1h4v1c0 .553.448 1 1 1h24c.552 0 1-.447 1-1v-1h4c.552 0 1-.447 1-1v-3.022c.519-.052.999-.292 1.337-.696.381-.457.539-1.054.433-1.64l-3.443-18.979c-.859-4.739-3.549-8.891-7.453-11.634.005-.01.01-.019.016-.03h.11v-.215c1.758-3.491 3.689-8.645 2.044-12.146-1.393-2.964-4.021-5.782-7.031-7.54-1.336-.78-2.707-1.123-4.079-1.04-1.644.108-2.935.448-3.947 1.04-3.01 1.758-5.638 4.576-7.032 7.541-1.644 3.5.287 8.654 2.044 12.144v.217h.112c.003.006.006.011.009.017-4 2.76-6.742 6.978-7.592 11.819zm.472 23.164v-2h3v2zm5-2.465 5.555-3.703-1.109-1.664-4.446 2.964v-13.132h-2v14h-4.809l3.307-18.818c.745-4.238 3.113-7.947 6.579-10.405.405.703.734 1.226.924 1.52v13.703h2v-12.132l4 2.667v29.465h-10.001zm18-33.231c-.626 1.21-1.248 2.255-1.721 2.976l-5.279 3.518-5.279-3.519c-.474-.72-1.095-1.764-1.722-2.973v-4.835c0-1.66 1.045-3.166 2.601-3.747 1.289-.481 2.637-.724 4.01-.724h.78c1.373 0 2.721.243 4.008.723 1.557.582 2.602 2.088 2.602 3.748zm6 35.696v-2h3v2zm1.359-22.979 3.443 18.979h-4.802v-14h-2v13.132l-4.445-2.964-1.109 1.664 5.554 3.703v4.465h-10v-29.465l4-2.666v12.131h2v-13.702c.188-.291.515-.811.916-1.508 3.374 2.441 5.691 6.087 6.443 10.231zm-23.593-23.531c1.227-2.612 3.556-5.104 6.23-6.665.728-.425 1.76-.685 3.07-.771.967-.068 1.954.195 2.938.771 2.674 1.562 5.003 4.053 6.23 6.664.744 1.583.465 3.809-.234 6.057v-.076c0-2.49-1.568-4.75-3.903-5.622-1.512-.562-3.095-.848-4.707-.848h-.78c-1.612 0-3.195.286-4.708.85-2.334.871-3.902 3.13-3.902 5.621v.082c-.7-2.249-.979-4.477-.234-6.063z"/></svg>