<svg id="Layer_1_1_" enable-background="new 0 0 64 64" height="512" viewBox="0 0 64 64" width="512" xmlns="http://www.w3.org/2000/svg"><path d="m45 16v-2h14c.404 0 .77-.243.924-.617.155-.374.069-.804-.217-1.09l-4.293-4.293 4.293-4.293c.286-.286.372-.716.217-1.09-.154-.374-.52-.617-.924-.617h-15c-.553 0-1 .447-1 1v10 3c-1.654 0-3 1.346-3 3 0 .149.023.292.044.436l-5.072 3.382-2.343-1.406c-1.539-.924-3.301-1.412-5.094-1.412h-1.535v-1.031c.62-.833 1-1.854 1-2.969v-3h1c1.654 0 3-1.346 3-3h-2c0 .552-.448 1-1 1h-1c0-2.206-1.794-4-4-4h-2c-2.206 0-4 1.794-4 4v1 4c0 1.116.38 2.136 1 2.969v1.031h-2.921c-1.658 0-3.163 1.043-3.746 2.596l-2.27 6.054c-.115.307-.072.65.114.92.188.269.495.43.823.43v2h-2v-1h-2v1h-1c-.553 0-1 .447-1 1v4c0 .553.447 1 1 1h1v24h2v-24.184c.474-.169.889-.45 1.22-.816h3.78c.266 0 .52-.105.707-.293l.345-.345.909 23.638h-1.961v2h3 4c.516 0 .946-.392.995-.905l1.005-10.547 1.005 10.547c.049.513.479.905.995.905h4 3v-2h-1.961l.96-24.962c0-.006-.003-.012-.003-.018 0-.007.004-.013.004-.02v-5.847l5.858.837c.048.007.095.01.142.01.264 0 .519-.104.707-.293l6.293-6.293v17.586h2v-19c.553 0 1-.447 1-1v-4c0-.553-.447-1-1-1zm0-12h11.586l-3.293 3.293c-.391.391-.391 1.023 0 1.414l3.293 3.293h-11.586zm-2 14h1v2h-1c-.552 0-1-.448-1-1s.448-1 1-1zm-15.465 4c.156 0 .31.022.465.032v11.897c-1.158-.211-2-1.018-2-3.929v-8zm-7.535-1.424c.614.27 1.288.424 2 .424s1.386-.154 2-.424v9.424c0 1.72.299 3.031.877 4h-5.754c.578-.969.877-2.28.877-4zm5-4.576c0 1.654-1.346 3-3 3s-3-1.346-3-3v-3h6zm-4-7h2c1.103 0 2 .897 2 2h-6c0-1.103.897-2 2-2zm-3 21c0 2.911-.842 3.718-2 3.929v-11.929h2zm-4.794-6.702c.154-.41.44-.741.794-.969v5.671h-2.558zm-6.206 12.702h-1v-2h1c.552 0 1 .448 1 1s-.448 1-1 1zm5.586-1h-2.586c0-.352-.072-.686-.184-1h1.184c.553 0 1-.447 1-1v-3h2v3.586zm14.452 25h-2.129l-1.914-20.095c-.049-.513-.479-.905-.995-.905s-.946.392-.995.905l-1.914 20.095h-2.129l-.923-24h11.922zm2.962-37.588c.555.183 1.095.411 1.6.714l.5.3.769 4.117-2.869-.411zm5.646 5.527-.687-.098-.568-3.04.094.056c.16.096.337.143.515.143.193 0 .387-.057.555-.168l5.433-3.622c.247.225.526.417.838.55z"/><path d="m56 17h2v2h-2z"/><path d="m58 19h2v2h-2z"/><path d="m56 21h2v2h-2z"/><path d="m54 19h2v2h-2z"/><path d="m37 2h2v2h-2z"/><path d="m39 4h2v2h-2z"/><path d="m35 4h2v2h-2z"/><path d="m37 6h2v2h-2z"/></svg>