<svg id="Layer_1_1_" enable-background="new 0 0 64 64" height="512" viewBox="0 0 64 64" width="512" xmlns="http://www.w3.org/2000/svg"><path d="m14 38h1v24h2v-24.184c.474-.169.889-.449 1.22-.816h3.78c.265 0 .52-.105.707-.293l.293-.293v1.586 19c-2.206 0-4 1.794-4 4 0 .552.448 1 1 1h10c.552 0 1-.448 1-1v-2.924l1-6.499 1 6.499v2.924c0 .552.448 1 1 1h10c.552 0 1-.448 1-1 0-2.206-1.794-4-4-4v-19-1.586l.293.293c.187.188.442.293.707.293h3.78c.33.366.746.647 1.22.816v24.184h2v-24h1c.552 0 1-.448 1-1v-4c0-.552-.448-1-1-1h-1v-1h-2v1h-2v-2c.328 0 .635-.161.822-.43.187-.27.229-.614.115-.921l-2.27-6.053c-.289-.77-.805-1.414-1.454-1.868l1.855-3.626c.64-1.28.801-2.75.454-4.139l-.706-2.825c.108-.363.184-.74.184-1.138h-.469l-.614-2.456c-.669-2.675-3.063-4.544-5.821-4.544h-10.192c-2.758 0-5.151 1.869-5.821 4.544l-1.604 6.418c-.347 1.389-.186 2.858.458 4.147l1.851 3.618c-.649.454-1.165 1.098-1.454 1.868l-2.27 6.053c-.115.307-.072.651.115.921.186.27.493.431.821.431v2h-2v-1h-2v1h-1c-.552 0-1 .448-1 1v4c0 .552.448 1 1 1zm21-17h-6c-1.103 0-2-.897-2-2v-6h10v6c0 1.103-.897 2-2 2zm-6 2h6v11c0 1.13.391 2.162 1.026 3h-8.051c.634-.838 1.025-1.87 1.025-3zm8 11v-11.556c.221-.129.426-.276.618-.444h1.382v14.829c-1.164-.413-2-1.525-2-2.829zm0-23h-10v-1c0-1.103.897-2 2-2h6c1.103 0 2 .897 2 2zm-10.618 11c.191.167.397.315.618.444v11.556c0 1.304-.836 2.416-2 2.829v-14.829zm-5.113 38c.346-.597.993-1 1.731-1h1 5v1zm10.731-16c-.494 0-.913.36-.988.848l-1.87 12.152h-4.142v-18h14v18h-4.142l-1.87-12.152c-.075-.488-.494-.848-.988-.848zm10.731 16h-7.731v-1h5 1c.739 0 1.385.403 1.731 1zm6.269-24h-1c-.551 0-1-.449-1-1s.449-1 1-1h1zm-5-2h1.184c-.112.314-.184.648-.184 1h-2.586l-1.414-1.414v-3.586h2v3c0 .552.448 1 1 1zm-.443-6h-2.557v-5.671c.354.229.64.56.793.969zm-1.274-11.801-1.96 3.833c-.134-.014-.266-.032-.402-.032h-1.063c.084-.322.142-.653.142-1v-6h1c.851 0 1.638-.272 2.287-.727l.294 1.176c.232.925.124 1.905-.298 2.75zm-20.561.008c-.427-.854-.534-1.833-.303-2.759l1.604-6.418c.447-1.784 2.042-3.03 3.881-3.03h10.192c1.838 0 3.434 1.246 3.88 3.03l.743 2.974c-.346.592-.983.996-1.719.996h-1v-1c0-2.206-1.794-4-4-4h-6c-2.206 0-4 1.794-4 4v2 7c0 .347.058.678.142 1h-1.063c-.136 0-.268.018-.401.031zm.485 7.091c.154-.409.44-.741.793-.969v5.671h-2.557zm-2.207 10.702c.552 0 1-.448 1-1v-3h2v3.586l-1.414 1.414h-2.586c0-.352-.072-.686-.184-1zm-5 0h1c.551 0 1 .449 1 1s-.449 1-1 1h-1z"/></svg>