<svg id="Layer_1_1_" enable-background="new 0 0 64 64" height="512" viewBox="0 0 64 64" width="512" xmlns="http://www.w3.org/2000/svg"><path d="m10 34c0 7.168 5.832 13 13 13s13-5.832 13-13-5.832-13-13-13-13 5.832-13 13zm24 0c0 6.065-4.935 11-11 11s-11-4.935-11-11 4.935-11 11-11 11 4.935 11 11z"/><path d="m61 13h-38c-4.511 0-8.725 1.885-11.752 5.177l-.198-.198c-.943-.944-2.199-1.465-3.535-1.465s-2.592.521-3.535 1.465c-.944.943-1.465 2.199-1.465 3.535s.521 2.592 1.465 3.535l2.828 2.829c.081.081.175.156.265.233-.682 1.839-1.073 3.817-1.073 5.889 0 9.374 7.626 17 17 17s17-7.626 17-17c0-.323-.012-.652-.035-1h21.035c.553 0 1-.447 1-1v-14-4c0-.553-.447-1-1-1zm-1 4h-23v-2h23zm-33 0v-2h8v2zm-4-2h2v2h-2c-3.649 0-7.025 1.167-9.798 3.132l-.54-.54c2.653-2.919 6.364-4.592 10.338-4.592zm-13.904 9.25-.604-.604c-.267-.267-.267-.7 0-.967.264-.266.698-.267.966 0l.47.47c-.295.353-.567.724-.832 1.101zm-3.702-.614c-.566-.566-.879-1.319-.879-2.121s.313-1.555.879-2.121c1.133-1.133 3.109-1.133 4.242 0l2 2c-.111.101-.224.199-.333.303l-.431-.431c-1.046-1.047-2.75-1.047-3.794 0-1.046 1.046-1.046 2.749 0 3.795l.934.934c-.031.057-.055.118-.085.176zm54.606 7.364h-21.139c-.287 0-.56.123-.75.338-.189.216-.278.502-.242.786.089.715.131 1.311.131 1.876 0 8.271-6.729 15-15 15s-15-6.729-15-15 6.729-15 15-15h37z"/></svg>