<svg id="Layer_1_1_" enable-background="new 0 0 64 64" height="512" viewBox="0 0 64 64" width="512" xmlns="http://www.w3.org/2000/svg"><path d="m52.58 11.169 1.457-1.283c.207-.183.33-.443.338-.72.009-.275-.097-.543-.292-.738l-6.364-6.363c-.391-.391-1.023-.391-1.414 0l-1.414 1.414-.707-.707c-.391-.391-1.023-.391-1.414 0l-9.192 9.192c-.391.391-.391 1.023 0 1.414l.707.707-32.222 32.222c-.391.391-.391 1.023 0 1.414l1.414 1.414c2.569 2.568 6.076 4.383 9.381 4.855.045.006.089.009.133.009.242 0 .479-.092.664-.253.219-.189.345-.475.345-.765 0-4.159 1.75-8.166 4.8-10.994l22.516-20.869.432.432-.684 12.989c-.016.299.104.589.324.791.186.169.427.262.675.262.047 0 .094-.003.142-.01 15.261-2.18 19.705-13.589 19.887-14.073.138-.367.048-.781-.229-1.059zm-5.568-6.982 4.903 4.903-.752.662-4.858-4.858zm-3.535.707 12.772 12.773c-1.607 1.771-6.384 6.637-12.799 9.593l.319-6.05c.015-.283-.092-.56-.292-.76l-7.778-7.778zm-26.037 35.627c-3.163 2.933-5.092 6.983-5.397 11.275-2.539-.62-5.196-2.121-7.151-4.075l-.707-.707 31.513-31.514 4.202 4.203zm25.686-7.116.206-3.918c7.186-3.03 12.477-8.35 14.335-10.402l2.299 2.299c-1.036 2.209-5.422 9.921-16.84 12.021z"/><path d="m7.721 46.306c-.391.391-.391 1.024 0 1.414.391.391 1.024.391 1.414 0 .391-.391.391-1.024 0-1.414s-1.024-.39-1.414 0z"/></svg>