<svg id="Layer_1_1_" enable-background="new 0 0 64 64" height="512" viewBox="0 0 64 64" width="512" xmlns="http://www.w3.org/2000/svg"><path d="m51.331 18.083 1.376-1.376-1.414-1.414-1.542 1.542c-4.723-3.479-10.498-5.603-16.751-5.81v-2.025h-2v2.025c-6.253.206-12.028 2.331-16.751 5.809l-1.542-1.542-1.414 1.414 1.376 1.376c-6.518 5.509-10.669 13.736-10.669 22.918v13c0 .552.447 1 1 1h58c.553 0 1-.448 1-1v-13c0-9.182-4.151-17.409-10.669-22.917zm8.379 18.917h-1.296l-.135-.135c-4.177-4.177-7.206-9.396-8.76-15.096l-.402-1.473.796-.796c5.191 4.331 8.791 10.501 9.797 17.5zm-55.631 2h1.099c.766 3.734.342 7.629-1.178 11.104v-9.104c0-.673.032-1.339.079-2zm3.022-.687.034-.034c4.423-4.422 7.63-9.949 9.275-15.983l.331-1.213c5.488.475 11.012-1.242 15.259-4.769 4.246 3.526 9.765 5.247 15.259 4.769l.331 1.213c1.646 6.034 4.853 11.561 9.275 15.983l.034.034c-1.098 4.99-.246 10.274 2.331 14.687h-54.461c2.577-4.413 3.429-9.696 2.332-14.687zm51.72.687h1.099c.048.661.08 1.327.08 2v9.104c-1.52-3.475-1.944-7.37-1.179-11.104zm-10.503-20.732-.777.777-.02.002c-5.213.575-10.483-1.046-14.463-4.458l-.058-.049v-1.515c5.702.202 10.973 2.115 15.318 5.243zm-17.318-5.243v1.515l-.057.049c-3.981 3.412-9.252 5.035-14.464 4.458l-.02-.002-.777-.777c4.345-3.128 9.616-5.041 15.318-5.243zm-16.914 6.475.796.796-.402 1.474c-1.554 5.699-4.583 10.919-8.76 15.096l-.134.134h-1.296c1.006-6.999 4.606-13.169 9.796-17.5z"/><path d="m47.282 40.71 2.96-.74-.484-1.94-2.384.596.596-2.383-1.939-.485-.616 2.462-12.615-16.82c-.377-.504-1.223-.504-1.6 0l-21 28c-.228.303-.264.708-.095 1.047.17.339.516.553.895.553h42c.379 0 .725-.214.895-.553.169-.339.133-.744-.095-1.047zm-9.428-9.238 6.263 8.351-1.67.835zm-6.025-7.578 12.553 25.106h-31.382zm14.789 25.106-3.276-6.553 1.995-.998 5.663 7.551z"/></svg>